<svg version="1.1" xmlns="http://www.w3.org/2000/svg" xmlns:xlink="http://www.w3.org/1999/xlink" x="0px" y="0px" viewBox="0 0 48 48" style="enable-background:new 0 0 48 48;" xml:space="preserve">
    <g>
        <path fill="#0070D1" d="M1,32.5c-1.8,1.2-1.2,3.5,2.6,4.6c4,1.3,8.3,1.7,12.5,1c0.2,0,0.5-0.1,0.6-0.1v-4.1l-4.1,1.3
        c-1.6,0.5-3.1,0.6-4.7,0.2c-1.2-0.4-1-1.1,0.5-1.7l8.3-2.9v-4.4l-11.5,4C3.7,30.8,2.3,31.6,1,32.5z M28.8,14.5v11.6
        c4.9,2.4,8.8,0,8.8-6.2c0-6.4-2.3-9.2-8.9-11.5c-3.5-1.2-7.1-2.3-10.7-3v34.7l8.4,2.5V13.4c0-1.3,0-2.3,1-1.9
        C28.7,11.9,28.8,13.2,28.8,14.5z M44.4,29.8c-3.5-1.2-7.2-1.7-10.8-1.3c-1.9,0.1-3.7,0.6-5.4,1.2l-0.4,0.1v4.7l7.8-2.9
        c1.6-0.5,3.1-0.6,4.7-0.2c1.2,0.4,1,1.1-0.5,1.7l-12,4.4V42l16.6-6.1c1.2-0.5,2.3-1.1,3.2-2C48.5,32.6,48.1,31,44.4,29.8z"/>
    </g>
</svg>