<svg version="1.1" xmlns="http://www.w3.org/2000/svg" xmlns:xlink="http://www.w3.org/1999/xlink" x="0px" y="0px" viewBox="0 0 48 48" style="enable-background:new 0 0 48 48;" xml:space="preserve">
    <g>
        <path fill="#E60012" d="M27.8,45h6.5c6,0,10.8-4.8,10.8-10.8V13.8C45,7.8,40.2,3,34.2,3h-6.5c-0.2,0-0.3,0.2-0.3,0.3v41.5
        C27.5,44.8,27.6,45,27.8,45z M35.7,21.8c2.4,0,4.3,1.9,4.3,4.3s-1.9,4.3-4.3,4.3c-2.4,0-4.3-1.9-4.3-4.3
        C31.5,23.7,33.5,21.8,35.7,21.8z"/>
        <circle fill="#E60012" cx="13.5" cy="15.6" r="3.9"/>
        <path fill="#E60012" d="M13.8,45h9.2c0.2,0,0.3-0.2,0.3-0.3V3.3c0-0.1-0.1-0.3-0.3-0.3h-9.2C7.8,3,3,7.8,3,13.8v20.5
        C3,40.2,7.8,45,13.8,45z M6.3,13.8c0-2,0.8-3.8,2.2-5.2s3.2-2.2,5.2-2.2h6.1v35.3h-6.1c-2,0-3.8-0.8-5.2-2.2s-2.2-3.2-2.2-5.2
        C6.3,34.1,6.3,13.8,6.3,13.8z"/>
    </g>
</svg>