<svg version="1.1" xmlns="http://www.w3.org/2000/svg" xmlns:xlink="http://www.w3.org/1999/xlink" x="0px" y="0px" viewBox="0 0 48 48" style="enable-background:new 0 0 48 48;" xml:space="preserve">
    <g>
        <path fill="#107C10" d="M21.9,44.9c-3.2-0.4-6.5-1.5-9.4-3.3c-2.4-1.6-2.9-2.2-2.9-3.4c0-2.5,2.8-7,7.5-12c2.7-2.9,6.5-6.2,6.9-6.1
        c0.8,0.2,7.1,6.4,9.5,9.3c3.8,4.6,5.5,8.4,4.6,10.1c-0.7,1.3-4.8,3.8-7.9,4.7C27.9,44.8,24.6,45.2,21.9,44.9z M6.5,35.5
        c-1.9-3-3-6-3.4-10.2c-0.2-1.4-0.1-2.2,0.4-5.2C4,16.5,6.1,12.3,8.5,9.8C9.6,8.7,9.7,8.7,11,9.1c1.6,0.5,3.2,1.7,5.8,4l1.5,1.4
        l-0.8,1.1C13.6,20.3,9.6,27,8.1,31.1c-0.8,2.3-1.1,4.5-0.8,5.4C7.5,37,7.3,36.8,6.5,35.5L6.5,35.5z M40.9,36.1
        c0.2-1-0.1-2.7-0.6-4.5c-1.2-3.8-5.4-10.9-9.2-15.7l-1.2-1.5l1.3-1.2c1.7-1.6,2.9-2.5,4.1-3.2c1-0.6,2.5-1.1,3.1-1.1
        c0.4,0,1.8,1.4,2.8,2.9c1.7,2.4,2.9,5.2,3.5,8.1c0.4,1.9,0.4,6,0.1,7.9c-0.4,1.6-1,3.6-1.6,5c-0.4,1.1-1.7,3.1-2.2,3.7
        C40.7,36.8,40.7,36.8,40.9,36.1L40.9,36.1z M22.3,8.1c-1.8-0.9-4.5-1.8-6-2.1c-0.5-0.1-1.4-0.2-2-0.1c-1.2,0.1-1.2,0,0.8-1
        c1.7-0.8,3.1-1.2,4.9-1.7c2.1-0.4,6-0.4,8.1,0c2.3,0.4,4.9,1.5,6.3,2.4L34.9,6l-1.1-0.1c-2-0.1-4.9,0.7-8.1,2.3
        C24.9,8.6,24,8.9,24,8.9C23.9,8.9,23.1,8.6,22.3,8.1L22.3,8.1z"/>
    </g>
</svg>